<?xml version="1.0" standalone="no"?>
<!DOCTYPE svg PUBLIC "-//W3C//DTD SVG 20010904//EN"
 "http://www.w3.org/TR/2001/REC-SVG-20010904/DTD/svg10.dtd">
<svg version="1.0" xmlns="http://www.w3.org/2000/svg"
 width="1000.000000pt" height="1000.000000pt" viewBox="0 0 1000.000000 1000.000000"
 preserveAspectRatio="xMidYMid meet">
<metadata>
Created by potrace 1.11, written by Peter Selinger 2001-2013
</metadata>
<g transform="translate(0.000000,1000.000000) scale(0.100000,-0.100000)"
fill="#000000" stroke="none">
<path d="M5036 9843 c-4 -4 -24 -8 -44 -9 -20 -1 -37 -2 -37 -4 0 -1 -7 -3
-15 -5 -8 -1 -38 -12 -66 -23 -29 -12 -55 -18 -60 -14 -4 4 -5 2 -1 -3 3 -6
-9 -17 -26 -25 -32 -14 -42 -21 -74 -50 -9 -8 -19 -15 -23 -15 -4 0 -14 -8
-24 -17 -10 -10 -22 -18 -28 -18 -6 0 -8 -3 -5 -7 4 -3 -6 -19 -22 -34 -16
-15 -27 -30 -23 -33 3 -3 0 -6 -7 -6 -7 0 -9 -4 -6 -10 3 -5 -1 -10 -10 -10
-9 0 -13 -4 -10 -10 3 -5 1 -10 -4 -10 -6 0 -11 -6 -11 -14 0 -7 -7 -19 -15
-26 -8 -7 -15 -21 -15 -31 0 -11 -3 -19 -7 -19 -5 0 -13 -11 -20 -25 -6 -15
-7 -22 -1 -19 5 4 4 -4 -3 -17 -14 -26 -20 -45 -22 -71 -1 -10 -5 -18 -9 -18
-4 0 -4 -7 -1 -17 5 -12 3 -14 -8 -8 -11 7 -12 6 -3 -6 6 -8 10 -23 8 -34 -11
-55 -11 -105 -2 -105 7 0 6 -5 -1 -14 -8 -9 -8 -16 -2 -20 5 -4 8 -19 7 -34
-2 -15 -1 -31 2 -37 8 -13 13 -36 13 -57 0 -10 5 -20 10 -23 5 -4 7 -11 4 -16
-4 -5 -1 -9 5 -9 6 0 9 -4 5 -9 -3 -5 -1 -12 5 -16 6 -4 8 -11 5 -16 -4 -5 -2
-9 2 -9 5 0 14 -12 21 -27 18 -41 35 -68 65 -105 15 -17 27 -35 27 -40 0 -4 7
-8 15 -8 8 0 15 -6 15 -13 0 -7 9 -18 20 -25 12 -7 18 -17 15 -23 -4 -5 -3 -8
2 -7 4 2 10 -2 13 -7 2 -5 15 -20 29 -32 13 -13 20 -23 15 -23 -5 0 -1 -5 8
-10 17 -10 75 -119 70 -132 -1 -5 3 -8 8 -8 6 0 10 -8 10 -18 0 -10 5 -23 11
-29 6 -6 12 -21 14 -34 6 -40 10 -53 19 -68 7 -10 5 -12 -3 -6 -10 6 -10 3 0
-16 7 -13 12 -25 11 -26 -1 -2 -1 -5 -1 -8 1 -3 2 -13 3 -22 1 -10 5 -24 10
-32 6 -9 5 -12 -1 -8 -9 6 -9 -34 1 -125 1 -16 0 -28 -3 -28 -3 0 -4 -25 -3
-55 3 -41 0 -55 -10 -56 -7 0 -31 -2 -53 -4 -22 -2 -59 -5 -82 -7 -24 -2 -43
-6 -43 -9 0 -3 -16 -5 -35 -3 -19 1 -35 -1 -35 -5 0 -4 -15 -7 -32 -6 -18 0
-39 -3 -46 -8 -7 -6 -27 -11 -45 -12 -50 -4 -112 -17 -117 -24 -3 -4 -14 -6
-25 -6 -11 0 -25 -4 -32 -8 -7 -5 -17 -6 -23 -2 -5 3 -10 1 -10 -5 0 -6 -4 -8
-10 -5 -5 3 -10 2 -10 -3 0 -5 -11 -8 -25 -7 -14 2 -25 -1 -25 -7 0 -6 -7 -8
-15 -4 -8 3 -15 2 -15 -3 0 -4 -6 -8 -12 -9 -26 -1 -62 -12 -67 -19 -5 -7 -16
-11 -46 -17 -23 -5 -86 -28 -122 -46 -21 -10 -41 -16 -45 -13 -5 2 -8 -1 -8
-7 0 -6 -4 -9 -9 -6 -5 3 -14 -1 -21 -9 -7 -8 -16 -12 -21 -9 -5 3 -12 -2 -15
-11 -5 -11 -9 -13 -14 -6 -4 8 -15 5 -34 -10 -29 -23 -40 -19 -42 12 -1 10 -3
20 -4 22 -5 5 -8 143 -3 157 3 8 7 39 9 68 2 29 6 57 9 62 8 13 18 59 19 90 1
14 5 28 9 31 11 8 15 149 5 177 -5 15 -4 22 5 22 8 0 7 4 -3 10 -8 5 -12 12
-8 15 3 3 0 26 -8 51 -7 24 -11 44 -9 44 2 0 -2 12 -10 27 -8 15 -12 30 -9 35
3 4 0 8 -5 8 -6 0 -11 7 -11 15 0 8 -4 15 -10 15 -5 0 -10 9 -10 20 0 11 -4
20 -10 20 -5 0 -10 6 -10 13 0 7 -9 23 -19 34 -11 12 -17 24 -14 27 4 3 -2 6
-12 6 -10 0 -15 3 -12 6 3 4 -7 19 -23 34 -16 15 -26 30 -23 34 3 3 0 6 -7 6
-7 0 -20 8 -29 18 -22 24 -78 62 -91 62 -5 0 -10 5 -10 11 0 5 -4 8 -9 4 -6
-3 -14 3 -20 12 -6 10 -11 14 -11 9 0 -5 -7 -3 -15 4 -8 7 -15 9 -15 5 0 -4
-11 0 -25 9 -14 9 -25 14 -25 10 0 -4 -8 0 -17 7 -15 12 -16 12 -8 -1 7 -13 6
-13 -11 1 -10 8 -29 14 -41 13 -13 0 -23 2 -23 5 0 8 -19 9 -112 10 -99 1
-158 -8 -231 -35 -23 -8 -48 -16 -55 -18 -7 -1 -18 -8 -24 -14 -7 -7 -18 -12
-24 -12 -7 0 -26 -11 -43 -26 -16 -14 -32 -24 -33 -22 -10 9 -158 -143 -164
-169 -4 -13 -9 -23 -13 -23 -9 0 -59 -97 -63 -120 -2 -8 -7 -18 -11 -21 -4 -3
-9 -16 -10 -27 -1 -12 -4 -22 -7 -22 -3 0 -6 -12 -5 -27 0 -16 -4 -31 -10 -35
-6 -5 -5 -8 3 -8 7 0 10 -5 7 -10 -4 -6 -11 -8 -16 -5 -5 3 -6 -1 -3 -9 3 -8
7 -54 9 -103 5 -133 8 -153 17 -153 4 0 8 -11 8 -24 0 -14 5 -28 10 -31 6 -4
8 -10 5 -15 -3 -5 -1 -11 5 -15 6 -4 8 -11 5 -16 -4 -5 -2 -9 2 -9 7 0 33 -55
33 -67 0 -2 8 -12 18 -22 30 -34 42 -50 42 -57 0 -9 99 -103 130 -122 14 -9
29 -22 33 -29 4 -7 17 -13 27 -13 11 0 20 -4 20 -8 0 -5 25 -17 55 -27 30 -11
55 -22 55 -26 0 -4 9 -5 20 -2 11 3 20 0 20 -6 0 -6 9 -11 19 -11 11 0 23 -5
26 -10 4 -6 11 -8 16 -5 5 4 21 0 36 -8 16 -8 47 -24 69 -36 90 -46 99 -51 90
-51 -5 0 12 -14 37 -31 41 -27 62 -59 39 -59 -5 0 -17 -8 -28 -18 -10 -10 -33
-26 -51 -37 -18 -10 -30 -22 -27 -27 3 -4 1 -8 -4 -8 -10 0 -27 -14 -130 -107
-26 -24 -51 -43 -55 -43 -5 0 -5 -4 -2 -10 3 -5 2 -10 -3 -10 -5 0 -38 -30
-73 -66 -35 -37 -83 -86 -106 -110 -24 -24 -40 -44 -36 -44 4 0 -2 -8 -13 -19
-24 -22 -50 -54 -88 -106 -17 -22 -35 -43 -40 -47 -7 -5 -7 -8 -1 -8 6 0 2 -5
-7 -11 -10 -5 -18 -16 -18 -23 0 -8 -7 -17 -16 -20 -8 -3 -12 -10 -9 -16 3 -5
1 -10 -5 -10 -5 0 -18 -16 -27 -35 -9 -19 -20 -35 -25 -35 -4 0 -8 -7 -8 -15
0 -8 -4 -15 -10 -15 -5 0 -10 -5 -10 -11 0 -6 -9 -24 -21 -40 -11 -16 -17 -29
-12 -29 4 0 0 -5 -9 -11 -10 -5 -18 -15 -18 -20 0 -6 -9 -24 -21 -40 -11 -16
-17 -29 -12 -29 4 0 4 -4 -2 -8 -11 -8 -49 -84 -47 -94 2 -11 -27 -18 -33 -7
-4 5 -11 7 -16 4 -5 -4 -9 -1 -9 4 0 6 -3 10 -7 9 -5 -1 -21 4 -38 11 -16 7
-39 15 -49 17 -11 2 -22 7 -25 11 -3 5 -15 9 -25 11 -11 2 -29 10 -41 18 -12
8 -25 11 -28 7 -4 -3 -7 -1 -7 5 0 7 -7 12 -15 12 -8 0 -15 3 -15 8 0 4 -13
13 -30 20 -16 7 -43 26 -59 41 -17 16 -33 26 -36 23 -3 -3 -5 0 -5 7 0 7 -4 9
-10 6 -5 -3 -10 -2 -10 4 0 5 -18 27 -40 49 -22 21 -40 44 -40 50 0 7 -3 12
-8 12 -4 0 -18 18 -32 40 -14 22 -29 40 -34 40 -5 0 -6 3 -3 6 3 4 0 16 -8 28
-8 11 -15 28 -15 38 0 9 -8 22 -18 27 -9 6 -13 11 -9 11 4 0 2 10 -5 23 -7 12
-12 25 -13 29 0 4 -8 17 -18 28 -9 11 -17 25 -17 30 0 6 -4 10 -10 10 -5 0
-10 5 -10 11 0 6 -6 16 -12 23 -7 7 -24 27 -38 44 -14 18 -31 32 -38 32 -7 0
-10 5 -7 10 3 6 -1 10 -10 10 -9 0 -13 5 -10 10 3 6 0 10 -8 10 -8 0 -26 11
-41 25 -14 13 -30 25 -34 26 -35 9 -42 12 -42 19 0 4 -20 14 -45 21 -25 7 -45
16 -45 19 0 5 -18 9 -57 12 -7 1 -13 4 -13 7 0 3 -21 7 -48 9 -26 1 -49 7 -51
13 -1 5 -9 2 -17 -8 -13 -17 -14 -17 -8 0 5 15 3 16 -19 8 -17 -7 -28 -6 -37
2 -10 9 -11 9 -5 -1 5 -10 0 -12 -24 -9 -17 3 -31 2 -31 -2 0 -4 -12 -6 -27
-5 -16 1 -32 -1 -38 -5 -5 -3 -21 -7 -35 -9 -13 -2 -30 -8 -37 -14 -7 -5 -16
-7 -22 -4 -5 3 -11 1 -13 -4 -2 -6 -10 -12 -18 -14 -23 -4 -83 -36 -108 -59
-12 -11 -22 -16 -22 -12 0 5 -13 -5 -29 -23 -17 -17 -33 -32 -36 -32 -4 0 -13
-7 -21 -15 -9 -8 -13 -15 -10 -15 3 0 -7 -13 -22 -29 -33 -35 -56 -67 -53 -76
1 -3 -6 -14 -16 -23 -10 -9 -19 -24 -21 -32 -2 -8 -7 -17 -10 -20 -8 -5 -14
-27 -15 -47 0 -7 -4 -13 -9 -13 -5 0 -7 -4 -3 -9 3 -5 1 -12 -5 -16 -6 -4 -8
-10 -5 -15 3 -5 1 -11 -4 -15 -5 -3 -8 -14 -6 -25 2 -11 1 -22 -3 -24 -13 -8
-15 -226 -2 -226 7 0 8 -5 1 -17 -6 -12 -5 -26 5 -45 8 -15 12 -28 8 -28 -4 0
-1 -6 5 -13 6 -8 12 -22 14 -33 6 -30 41 -104 50 -104 4 0 6 -4 3 -8 -2 -4 9
-23 25 -41 16 -18 26 -38 22 -44 -3 -6 -1 -7 5 -3 7 4 12 3 12 -1 0 -10 93
-108 98 -104 2 2 15 -6 28 -18 13 -12 29 -21 34 -21 6 0 10 -5 10 -11 0 -5 4
-8 9 -5 5 3 14 -1 21 -9 7 -8 23 -15 37 -15 14 0 21 -4 18 -10 -3 -5 1 -11 9
-11 19 -2 26 -4 46 -12 8 -4 26 -9 40 -11 14 -3 25 -5 25 -6 0 -19 270 -16
323 3 23 9 42 13 42 9 0 -4 4 -1 9 7 5 8 22 15 37 17 16 2 30 8 32 14 2 5 8 7
13 4 6 -3 15 -2 22 4 11 8 78 29 122 37 11 2 20 4 20 5 0 1 25 4 55 6 30 2 72
5 92 7 23 2 38 -1 38 -7 0 -6 5 -4 10 4 5 8 10 11 10 5 0 -5 24 -10 54 -10 30
0 52 -3 50 -6 -6 -10 22 -19 46 -14 11 2 20 -1 20 -6 0 -6 4 -8 9 -4 5 3 12 1
16 -5 4 -6 11 -8 16 -5 5 4 9 1 9 -5 0 -6 4 -9 8 -6 5 3 21 -1 36 -9 15 -8 33
-14 39 -12 7 1 11 -2 10 -8 -1 -5 13 -11 30 -12 18 -2 33 -7 35 -13 2 -6 8 -8
13 -4 5 3 9 0 9 -6 0 -7 7 -10 15 -7 11 5 13 0 8 -26 -3 -18 -10 -39 -14 -48
-5 -9 -5 -19 -2 -23 3 -3 1 -6 -6 -6 -7 0 -10 -4 -7 -9 5 -8 -9 -59 -25 -92
-4 -10 -3 -21 4 -28 7 -7 7 -11 1 -11 -6 0 -11 -6 -12 -12 -5 -37 -9 -54 -14
-63 -3 -6 -4 -20 -3 -32 1 -13 -1 -23 -5 -23 -3 0 -7 -10 -8 -22 0 -13 -3 -39
-7 -58 -3 -19 -7 -49 -8 -66 -2 -17 -7 -36 -11 -43 -4 -6 -1 -11 6 -11 9 0 9
-3 2 -8 -6 -4 -10 -19 -9 -34 1 -16 -2 -28 -8 -28 -5 0 -4 -7 3 -15 7 -8 8
-15 3 -15 -6 0 -9 -12 -7 -27 1 -15 -1 -34 -6 -43 -5 -9 -4 -23 1 -33 6 -9 6
-17 2 -17 -10 0 -9 -93 1 -109 4 -6 4 -11 -1 -11 -9 0 -10 -127 0 -136 3 -3 2
-17 -3 -30 -6 -15 -6 -24 0 -24 5 0 7 -6 4 -14 -4 -9 -18 -14 -39 -13 -18 1
-31 5 -28 10 2 4 -5 8 -16 8 -12 1 -24 3 -28 4 -5 2 -18 6 -30 10 -13 4 -21
10 -19 14 3 4 -5 8 -16 8 -12 1 -24 7 -28 13 -4 7 -10 12 -13 11 -4 0 -21 6
-39 14 -18 8 -29 14 -23 15 5 0 -15 16 -45 35 -29 19 -56 39 -59 44 -4 5 -18
15 -31 20 -14 6 -32 15 -40 20 -49 27 -80 41 -80 35 0 -5 -5 -3 -12 4 -7 7
-20 12 -30 12 -10 0 -18 3 -18 8 0 4 -17 8 -38 10 -50 3 -70 7 -78 15 -4 3
-15 2 -25 -4 -11 -5 -19 -6 -19 -1 0 10 -30 9 -46 0 -5 -4 -16 -3 -24 2 -8 5
-22 4 -32 -1 -10 -6 -23 -7 -28 -4 -6 3 -10 2 -10 -4 0 -6 -15 -9 -34 -7 -19
1 -33 -1 -30 -6 4 -7 -26 -13 -49 -9 -4 0 -7 -4 -7 -10 0 -5 -4 -8 -9 -5 -5 4
-11 2 -13 -3 -1 -5 -12 -11 -23 -13 -11 -1 -26 -9 -33 -15 -7 -7 -20 -13 -28
-13 -8 0 -14 -5 -14 -11 0 -5 -4 -8 -9 -5 -5 3 -11 -1 -15 -9 -3 -8 -12 -15
-21 -15 -8 0 -15 -4 -15 -9 0 -6 -13 -18 -30 -28 -16 -9 -30 -23 -30 -31 0 -7
-4 -10 -10 -7 -5 3 -10 2 -10 -3 0 -5 -15 -24 -33 -43 -18 -19 -34 -36 -34
-39 -5 -22 -28 -58 -34 -54 -8 5 -14 -17 -10 -38 0 -5 -3 -8 -9 -8 -5 0 -10
-4 -10 -9 0 -5 -4 -20 -9 -33 -5 -13 -9 -26 -10 -31 0 -4 -8 -21 -16 -37 -10
-20 -12 -30 -4 -30 8 0 7 -5 -2 -16 -10 -12 -13 -49 -13 -133 1 -119 3 -146
18 -169 4 -7 5 -16 2 -19 -3 -3 -1 -12 5 -20 6 -7 9 -13 5 -13 -4 0 2 -17 13
-39 11 -21 17 -41 14 -45 -4 -3 -1 -6 6 -6 7 0 9 -4 6 -10 -3 -5 -1 -10 4 -10
6 0 11 -6 11 -13 0 -8 9 -22 20 -32 11 -10 20 -23 20 -30 0 -20 149 -165 169
-165 5 0 11 -4 13 -8 1 -5 33 -24 70 -44 37 -20 65 -32 63 -27 -3 4 8 1 23 -7
16 -8 41 -15 56 -16 14 -1 26 -6 26 -11 0 -5 9 -6 19 -2 11 3 22 1 26 -5 5 -8
11 -8 21 1 8 6 14 8 14 3 0 -11 90 -11 108 -1 7 5 12 3 12 -3 0 -6 5 -8 13 -3
6 4 26 8 42 9 17 1 31 3 33 4 1 1 7 4 12 5 6 1 11 3 13 5 3 2 40 11 55 12 6 1
12 5 12 10 0 4 3 7 8 6 14 -4 52 13 52 24 0 5 6 8 14 5 8 -3 23 3 35 14 12 11
21 17 21 14 0 -5 28 17 59 45 9 8 31 27 50 43 18 15 30 27 26 27 -5 0 26 36
117 131 21 21 40 39 43 39 3 0 14 8 24 17 55 50 137 97 152 87 8 -4 9 -3 5 4
-4 7 -2 12 3 12 6 0 11 -3 12 -7 0 -5 3 -17 5 -28 3 -11 7 -29 9 -40 2 -11 4
-21 5 -22 2 -2 3 -6 5 -10 1 -5 5 -15 8 -23 4 -8 8 -24 10 -35 2 -11 6 -27 9
-35 33 -91 38 -111 32 -121 -4 -8 -3 -9 4 -5 8 5 12 0 12 -13 0 -11 4 -22 9
-25 5 -3 12 -18 16 -33 7 -28 24 -69 78 -183 16 -36 31 -71 33 -79 1 -8 6 -17
11 -20 4 -3 9 -11 10 -17 1 -6 19 -40 40 -75 21 -35 36 -67 35 -71 -1 -5 3 -8
9 -8 5 0 8 -4 5 -9 -4 -5 0 -11 6 -14 9 -3 4 -13 -14 -30 -16 -14 -28 -23 -28
-19 0 4 -5 -1 -11 -11 -5 -9 -15 -17 -20 -17 -6 0 -17 -6 -24 -13 -33 -28 -45
-37 -45 -32 0 3 -10 -3 -22 -15 -12 -11 -28 -20 -35 -20 -7 0 -13 -4 -13 -9 0
-5 -13 -14 -30 -20 -16 -5 -30 -15 -30 -20 0 -6 -3 -10 -7 -9 -15 4 -103 -26
-103 -35 0 -5 -11 -7 -25 -5 -14 3 -25 1 -25 -4 0 -5 -4 -7 -9 -3 -5 3 -12 1
-15 -4 -4 -5 -14 -8 -24 -6 -9 1 -24 -1 -33 -6 -10 -5 -21 -3 -27 3 -8 8 -12
9 -12 1 0 -7 -22 -10 -61 -9 -33 1 -63 -2 -66 -7 -2 -4 -10 -3 -17 2 -7 6 -36
12 -64 13 -29 2 -52 8 -52 13 0 6 -5 3 -10 -5 -5 -8 -10 -10 -10 -3 0 13 -18
12 -39 -1 -9 -6 -12 -5 -8 1 4 6 -9 10 -33 9 -22 0 -40 -5 -40 -10 0 -5 -7 -3
-15 4 -8 7 -15 9 -15 4 0 -5 -17 -10 -37 -12 -20 -1 -42 -7 -49 -13 -7 -6 -17
-8 -22 -5 -5 3 -21 -2 -36 -10 -16 -7 -35 -14 -42 -14 -8 0 -14 -4 -14 -9 0
-10 -49 -26 -65 -22 -5 2 -7 -1 -3 -5 4 -4 -12 -19 -35 -34 -59 -38 -191 -176
-182 -190 3 -4 -2 -10 -10 -14 -8 -3 -15 -15 -15 -26 0 -11 -4 -20 -8 -20 -12
0 -33 -50 -27 -61 4 -5 2 -9 -3 -9 -9 0 -28 -65 -24 -82 1 -5 -2 -8 -7 -8 -5
0 -8 -11 -6 -25 1 -14 -1 -28 -6 -30 -4 -3 -6 -16 -3 -30 2 -13 0 -26 -6 -30
-5 -3 -6 -15 -1 -28 4 -12 7 -43 7 -69 -1 -27 2 -48 7 -48 4 0 5 -5 2 -10 -4
-6 -1 -18 7 -27 11 -14 11 -16 -2 -8 -13 8 -13 7 -1 -8 7 -9 10 -17 6 -17 -4
0 -2 -6 4 -14 6 -8 11 -18 9 -22 -1 -5 6 -26 15 -48 9 -21 17 -40 17 -43 0 -2
14 -24 30 -49 17 -24 29 -44 26 -44 -3 0 8 -13 26 -30 17 -16 28 -30 25 -30
-3 0 5 -11 19 -25 14 -14 27 -25 30 -25 2 0 18 -14 34 -30 17 -17 30 -25 30
-18 0 8 5 6 11 -5 8 -14 61 -49 79 -52 3 0 21 -8 40 -17 63 -29 86 -36 128
-40 12 -1 22 -5 22 -8 0 -4 22 -6 50 -6 27 1 50 -3 50 -9 0 -5 5 -3 10 5 9 13
10 13 10 0 0 -9 3 -11 8 -5 4 6 30 10 57 10 30 0 58 6 69 15 11 8 16 10 12 2
-9 -14 10 -17 19 -2 4 6 11 8 16 5 5 -4 9 0 9 7 0 9 3 9 10 -2 7 -11 10 -11
10 -2 0 7 4 11 9 7 5 -3 16 2 25 10 8 9 19 16 23 15 18 -1 83 31 83 41 0 5 5
7 10 4 6 -3 10 -1 10 4 0 6 6 11 13 11 6 0 29 16 51 35 21 19 42 35 48 35 5 0
6 5 3 10 -3 6 1 10 10 10 9 0 13 5 10 10 -3 6 1 13 9 16 9 3 26 22 38 42 12
21 27 40 32 44 6 4 8 8 4 8 -4 0 0 9 10 20 9 12 16 23 15 25 -2 3 8 25 22 50
13 25 18 42 12 38 -9 -5 -9 -3 -1 8 14 17 33 91 37 142 1 9 4 17 8 17 4 0 6 6
6 12 -2 26 16 88 25 88 5 0 7 4 3 9 -6 11 40 117 55 126 6 4 8 11 5 16 -4 5
-1 9 4 9 6 0 11 5 11 10 0 12 15 32 43 58 9 9 17 20 17 24 0 14 144 148 160
148 4 0 10 7 14 15 3 8 10 15 16 15 6 0 35 18 64 40 34 26 59 38 70 34 9 -3
16 -10 16 -14 0 -4 17 -26 39 -49 21 -22 36 -41 32 -41 -3 0 1 -5 10 -10 11
-6 16 -20 14 -42 -2 -18 1 -41 7 -52 7 -13 7 -16 -1 -11 -13 7 -6 -35 10 -67
6 -10 5 -19 -2 -24 -8 -5 -8 -8 0 -14 7 -4 13 -17 14 -28 1 -12 4 -22 7 -22 4
0 7 -6 7 -13 0 -20 50 -122 68 -137 8 -7 15 -18 15 -24 0 -6 14 -26 30 -44 17
-18 30 -37 30 -43 0 -5 4 -9 10 -9 5 0 21 -12 35 -27 14 -15 25 -23 25 -18 0
5 7 -1 16 -13 8 -12 20 -20 25 -17 5 4 9 2 9 -3 0 -5 12 -15 28 -22 15 -8 38
-23 51 -35 13 -11 21 -14 17 -7 -6 11 -4 11 10 3 19 -11 70 -32 89 -37 40 -10
77 -16 124 -20 29 -2 57 -7 62 -9 4 -3 10 -2 12 2 3 5 28 8 56 7 28 0 51 3 51
7 0 4 8 6 18 4 9 -1 25 2 36 7 31 16 94 17 107 2 6 -8 15 -14 20 -14 5 0 31
-9 57 -21 101 -44 113 -49 127 -49 8 0 15 -5 15 -10 0 -6 3 -9 8 -9 4 1 9 0
12 -1 10 -3 45 -11 58 -12 6 -1 12 -5 12 -10 0 -4 11 -8 24 -8 14 0 28 -5 31
-11 4 -6 13 -8 21 -5 7 3 16 1 19 -3 4 -8 61 -24 90 -26 6 0 16 -4 24 -9 8 -5
26 -10 40 -11 14 -1 33 -5 41 -8 16 -7 53 -15 110 -24 19 -3 43 -10 54 -15 14
-8 17 -7 11 3 -5 8 -4 10 3 5 17 -10 50 -17 107 -22 28 -3 56 -5 63 -6 9 -1 9
-5 2 -12 -5 -5 -10 -18 -10 -28 0 -10 -5 -18 -11 -18 -5 0 -8 -4 -5 -9 3 -5
-1 -14 -9 -21 -8 -7 -15 -18 -15 -26 0 -7 -6 -17 -14 -21 -8 -4 -15 -11 -16
-15 -2 -22 -13 -37 -23 -31 -5 3 -7 1 -3 -5 3 -6 -6 -20 -20 -31 -15 -12 -24
-21 -20 -21 9 0 -9 -18 -48 -48 -16 -12 -26 -22 -22 -22 4 0 -5 -11 -20 -25
-15 -14 -32 -25 -37 -25 -6 0 -8 -3 -4 -6 3 -4 -7 -19 -23 -35 -15 -16 -34
-42 -42 -59 -7 -16 -16 -30 -20 -30 -5 0 -8 -9 -8 -20 0 -10 -8 -24 -17 -29
-10 -6 -15 -11 -11 -11 4 0 -1 -20 -12 -45 -11 -25 -17 -45 -15 -45 3 0 0 -12
-6 -27 -14 -36 -19 -72 -18 -158 0 -94 3 -128 12 -142 5 -7 6 -13 3 -13 -3 0
1 -18 9 -40 8 -22 15 -42 15 -45 0 -3 8 -22 17 -42 9 -21 16 -44 16 -50 0 -7
4 -13 8 -13 5 0 16 -14 24 -31 9 -16 25 -39 36 -50 10 -10 19 -23 19 -28 0 -5
9 -13 20 -16 11 -4 18 -10 15 -14 -2 -5 10 -19 27 -32 17 -13 37 -30 44 -36 7
-7 17 -13 23 -13 6 0 11 -3 11 -8 0 -4 21 -18 48 -32 26 -13 50 -28 53 -32 3
-4 17 -9 32 -10 15 -1 27 -6 27 -11 0 -5 7 -7 15 -3 8 3 15 1 15 -4 0 -5 7 -7
15 -4 8 4 15 2 15 -3 0 -12 -2 -11 134 -18 79 -3 113 -1 124 8 13 9 14 9 8 0
-4 -7 -2 -13 3 -13 6 0 11 5 11 10 0 6 11 8 25 6 13 -3 27 0 30 5 4 5 14 9 24
9 10 0 31 7 47 14 15 8 31 13 36 10 4 -3 8 0 8 6 0 6 5 8 10 5 6 -3 10 -1 10
4 0 6 5 11 12 11 6 0 26 11 45 26 18 14 33 23 33 20 0 -14 151 135 153 151 0
4 11 19 24 33 13 14 26 35 29 47 4 13 10 23 15 23 5 0 9 8 9 18 0 9 7 30 15
46 8 15 12 33 8 39 -4 6 -1 7 7 2 10 -6 12 -4 7 8 -3 9 -2 19 3 22 5 3 7 12 3
20 -3 8 -1 15 4 15 5 0 9 18 8 40 -1 23 3 44 8 47 5 3 3 9 -4 14 -12 7 -12 9
0 9 11 0 11 3 1 15 -7 8 -8 15 -3 15 5 0 10 7 10 15 0 8 -5 15 -10 15 -5 0 -4
7 3 15 7 8 8 15 3 15 -5 0 -10 15 -11 33 0 17 -3 43 -7 57 -3 14 -8 32 -10 40
-2 8 -4 17 -5 20 -1 3 -2 9 -1 14 1 4 -6 15 -16 23 -10 8 -11 11 -3 7 13 -7
13 -6 0 10 -8 10 -15 24 -16 31 -1 8 -16 34 -33 59 -17 24 -31 47 -31 51 0 3
-11 18 -25 33 -14 15 -32 34 -40 43 -8 9 -15 21 -15 27 0 7 -8 12 -17 12 -9 0
-14 3 -10 6 3 3 -3 16 -14 27 -11 12 -18 26 -15 33 2 6 -4 17 -15 25 -10 7
-19 21 -19 31 0 10 -4 18 -8 18 -4 0 -16 26 -27 58 -10 31 -22 62 -27 68 -15
20 15 29 89 29 39 0 69 3 66 8 -2 4 8 7 24 8 15 0 48 2 73 5 25 3 57 6 73 7
15 1 27 5 27 8 0 6 4 7 62 11 20 2 40 6 44 11 4 4 22 7 41 7 18 0 33 4 33 9 0
4 10 7 23 7 12 -1 28 2 35 7 6 5 12 6 12 2 0 -4 7 -2 15 5 8 7 15 9 15 5 0 -4
7 -2 15 5 8 7 15 10 15 6 0 -3 12 -1 28 5 30 12 54 19 95 26 15 3 27 10 27 16
0 6 3 7 7 4 3 -4 17 0 31 9 13 9 22 11 18 6 -6 -10 32 5 77 29 10 5 22 7 27 4
6 -4 10 -1 10 4 0 6 9 11 20 11 11 0 20 5 20 12 0 6 3 8 6 5 4 -3 16 -1 28 5
11 7 24 11 29 10 4 -1 7 2 7 8 0 5 9 10 20 10 11 0 20 5 20 10 0 6 3 10 8 9
15 -2 52 14 52 22 0 5 3 8 8 8 19 -3 33 2 27 11 -3 6 1 7 9 4 9 -3 16 -2 16 3
0 6 18 16 40 23 22 7 40 17 40 23 0 5 7 6 16 3 10 -4 13 -2 8 6 -5 8 -2 9 12
3 10 -4 28 -9 39 -10 11 -2 20 -4 20 -5 0 -10 176 -17 182 -7 2 4 12 2 21 -5
13 -11 14 -11 8 0 -6 10 -2 13 15 11 13 -2 30 0 37 4 6 5 12 6 12 3 0 -3 16 2
35 10 19 8 36 14 37 13 2 0 17 5 33 12 17 7 33 12 38 11 4 -1 7 3 7 9 0 5 4 8
9 5 4 -3 19 3 31 14 13 11 27 20 32 20 5 0 20 12 34 27 14 16 22 21 18 13 -4
-8 19 12 50 45 83 87 86 91 86 103 0 7 4 12 8 12 9 0 47 71 44 83 -1 4 3 7 9
7 5 0 7 4 4 10 -3 6 -1 10 5 10 6 0 8 5 5 10 -3 6 -2 10 4 10 5 0 8 8 6 18 -1
9 1 22 6 27 4 6 10 24 13 40 2 17 5 30 6 30 10 0 14 200 5 215 -4 6 -1 9 7 8
7 -2 12 2 11 7 0 6 5 16 13 23 8 7 14 9 14 5 0 -4 5 -1 10 7 7 11 10 11 10 2
0 -7 4 -10 10 -7 6 3 10 2 10 -4 0 -5 10 -13 22 -17 12 -3 30 -14 40 -24 10
-9 31 -23 46 -31 15 -8 34 -22 43 -31 9 -10 20 -18 24 -18 5 0 15 -7 24 -15 9
-8 34 -32 56 -52 46 -43 140 -163 128 -163 -4 0 -3 -4 4 -8 9 -6 63 -111 69
-134 1 -5 3 -10 4 -13 7 -13 23 -93 20 -101 -1 -4 3 -10 8 -13 6 -3 11 -22 13
-41 2 -19 7 -38 12 -41 4 -3 9 -16 10 -27 1 -12 5 -22 10 -22 5 0 7 -7 3 -15
-3 -8 -2 -15 2 -15 4 0 20 -25 36 -55 16 -30 33 -55 38 -55 5 0 7 -4 4 -9 -3
-5 6 -17 19 -27 14 -10 25 -24 25 -31 0 -7 4 -13 8 -13 4 0 23 -15 43 -32 35
-33 80 -66 89 -65 3 1 15 -8 28 -18 12 -11 26 -20 30 -20 4 -1 17 -6 28 -13
12 -6 24 -8 28 -5 3 3 6 1 6 -5 0 -7 11 -12 23 -12 13 0 27 -3 31 -7 7 -7 12
-8 76 -19 49 -9 200 -11 200 -4 0 3 14 5 30 4 17 -1 30 2 30 8 0 5 4 7 9 3 5
-3 12 -1 15 4 3 5 15 7 26 4 12 -3 20 0 20 6 0 7 4 10 9 6 6 -3 26 4 46 15 20
11 40 18 46 15 5 -4 9 -2 9 4 0 5 8 12 18 15 10 4 34 20 52 36 18 16 37 27 41
24 5 -3 9 3 9 12 0 10 3 15 6 12 3 -3 20 10 37 29 18 19 40 42 50 51 9 9 17
22 17 29 0 7 5 13 10 13 6 0 10 7 10 15 0 8 4 15 8 15 5 0 14 16 22 35 8 19
18 35 24 35 5 0 6 3 3 7 -4 3 -2 12 4 20 6 7 8 13 4 13 -4 0 -3 6 3 13 8 11
23 63 24 84 0 5 3 13 7 18 4 6 7 27 7 47 -1 21 3 38 7 38 4 0 3 9 -3 19 -6 12
-6 22 -1 25 7 5 8 41 1 41 -1 0 -3 25 -6 55 -3 30 -5 61 -6 68 -1 6 -5 12 -9
12 -4 0 -6 9 -4 20 2 11 -1 22 -6 25 -5 4 -7 10 -4 15 3 4 -2 13 -10 20 -7 6
-11 18 -8 26 3 8 0 14 -7 14 -6 0 -8 5 -5 10 3 6 -1 13 -9 16 -9 3 -14 10 -11
14 3 5 -2 15 -10 23 -8 9 -15 20 -15 25 0 5 -9 17 -20 27 -11 10 -20 24 -20
31 0 7 -9 15 -20 19 -11 3 -19 9 -17 13 2 7 -50 62 -58 62 -5 0 -37 26 -60 47
-7 7 -15 9 -19 6 -3 -4 -6 -1 -6 6 0 7 -4 10 -9 7 -5 -3 -14 1 -21 9 -7 8 -16
12 -21 9 -5 -3 -9 0 -9 5 0 6 -9 11 -20 11 -11 0 -20 5 -20 11 0 6 -6 9 -14 6
-8 -3 -19 0 -25 7 -6 7 -22 12 -36 10 -14 -1 -25 1 -25 5 0 4 -8 7 -17 8 -10
1 -34 3 -53 5 -19 2 -41 7 -49 12 -9 6 -12 5 -7 -2 4 -7 -1 -10 -14 -9 -11 1
-20 5 -20 10 0 4 -5 5 -10 2 -6 -4 -7 -11 -4 -17 5 -7 2 -8 -7 -2 -15 10 -69
14 -69 5 0 -3 -10 -6 -22 -7 -43 -2 -119 -13 -128 -19 -5 -3 -12 -1 -15 5 -4
7 -11 7 -18 2 -10 -7 -142 -9 -142 -2 0 2 -49 9 -85 13 -14 1 -28 5 -31 9 -3
5 -17 9 -32 10 -15 1 -27 6 -27 10 0 4 -9 8 -19 8 -11 0 -23 4 -26 10 -3 5
-15 10 -26 10 -10 0 -19 5 -19 11 0 5 -4 8 -9 5 -5 -4 -11 -2 -13 3 -1 5 -10
11 -18 13 -8 2 -20 8 -27 13 -31 25 -40 31 -65 44 -16 8 -28 18 -28 23 0 5 -5
6 -10 3 -6 -3 -13 0 -16 8 -3 9 -16 18 -29 21 -24 6 -43 38 -26 44 6 2 9 8 5
13 -3 5 0 9 5 9 6 0 11 9 11 20 0 11 5 20 12 20 6 0 9 3 5 6 -3 3 5 24 19 46
14 22 20 37 12 33 -7 -3 -5 0 5 8 9 8 17 17 17 20 0 3 5 18 12 34 6 15 12 30
13 33 0 3 8 19 18 36 9 17 13 34 10 38 -4 3 -2 6 4 6 5 0 10 7 11 15 1 8 3 22
4 30 1 8 5 15 9 15 8 0 19 25 25 60 3 14 9 27 15 28 5 2 7 7 4 12 -3 4 2 24
10 43 8 19 11 37 8 41 -4 3 -1 6 4 6 6 0 10 8 9 18 -2 9 1 20 5 23 5 3 10 18
11 33 2 16 9 31 16 34 8 3 10 7 4 11 -6 4 -6 15 1 31 5 14 10 34 11 45 1 11 5
27 11 35 5 8 8 27 6 42 -1 16 2 28 7 28 5 0 9 12 10 28 0 15 1 29 2 32 2 6 9
56 13 90 1 14 7 28 12 32 6 5 4 8 -5 8 -11 0 -12 3 -3 8 6 4 13 32 14 62 1 30
7 58 13 62 7 5 7 8 -2 8 -8 0 -10 5 -6 12 4 6 9 59 11 117 2 58 5 126 6 151 2
25 -1 51 -6 57 -6 8 -6 13 0 13 5 0 9 10 7 23 -1 12 -3 22 -4 22 -1 0 -2 26
-4 58 -3 49 0 59 17 68 14 8 18 8 13 0 -4 -6 -4 -11 1 -12 4 0 17 -3 28 -5 11
-3 26 -6 33 -6 6 -1 12 -5 12 -9 0 -5 7 -6 15 -3 8 4 15 1 15 -5 0 -6 7 -11
15 -11 19 0 120 -55 148 -80 11 -11 26 -20 33 -20 7 0 14 -4 16 -8 6 -15 120
-85 158 -97 3 -1 13 -5 22 -9 9 -4 22 -8 30 -10 7 -1 19 -5 26 -9 7 -5 26 -9
42 -9 16 -1 27 -5 23 -11 -3 -5 4 -4 16 2 15 8 21 8 21 1 0 -14 170 -10 189 4
12 9 13 8 6 -4 -7 -12 -6 -13 6 -4 8 7 33 15 57 19 23 4 48 13 56 20 10 10 16
11 25 2 6 -6 11 -7 11 -1 0 5 15 16 33 23 44 20 108 62 130 85 9 10 17 16 17
12 0 -3 15 9 33 28 53 56 87 98 87 107 0 5 5 9 11 9 5 0 8 4 4 9 -3 5 -1 12 5
16 15 9 70 131 70 155 0 11 4 20 8 20 5 0 8 18 8 39 -1 22 2 37 6 34 13 -7 0
276 -12 287 -6 5 -33 93 -31 98 1 1 -5 10 -14 18 -8 9 -13 19 -10 24 3 4 -2
11 -11 14 -8 3 -13 10 -10 15 3 5 -1 12 -10 15 -8 3 -13 10 -10 14 3 5 -6 20
-19 34 -13 14 -21 29 -18 32 4 3 2 6 -4 6 -6 0 -33 23 -61 50 -28 28 -56 50
-62 50 -6 0 -8 5 -5 10 4 6 3 10 -2 9 -12 -4 -63 23 -63 33 0 4 -6 8 -13 8 -7
0 -32 9 -55 20 -22 11 -48 20 -57 20 -8 0 -15 3 -15 8 0 6 -36 12 -92 15 -10
1 -18 4 -18 7 0 7 -161 5 -180 -2 -8 -4 -22 -6 -30 -6 -8 0 -28 -4 -45 -8 -16
-4 -38 -7 -47 -8 -9 0 -15 -3 -12 -7 3 -6 -34 -21 -59 -23 -4 -1 -12 -8 -17
-16 -5 -8 -10 -11 -10 -7 0 11 -43 -13 -53 -30 -5 -7 -12 -11 -17 -8 -8 5 -99
-82 -230 -221 -79 -84 -115 -114 -135 -114 -9 0 -18 -7 -21 -15 -4 -8 -12 -15
-19 -15 -7 0 -15 -4 -17 -9 -1 -6 -15 -12 -30 -15 -25 -4 -28 -2 -28 25 0 16
-5 29 -11 29 -6 0 -9 10 -8 23 2 12 0 28 -4 34 -5 7 -10 21 -12 30 -2 10 -15
52 -30 93 -14 41 -28 84 -30 94 -3 11 -10 23 -16 27 -6 4 -9 11 -5 17 3 6 0
16 -7 24 -8 7 -12 19 -9 26 2 6 -2 12 -9 12 -7 0 -10 2 -7 6 3 3 -7 32 -23 65
-16 32 -29 64 -29 69 0 6 -4 10 -10 10 -5 0 -7 7 -4 15 4 8 2 15 -4 15 -8 0
-23 35 -21 49 0 2 -3 7 -8 10 -5 3 -23 31 -39 61 -16 30 -32 57 -37 58 -4 2
-5 8 -1 13 3 5 0 9 -5 9 -6 0 -11 7 -11 15 0 8 -4 15 -10 15 -5 0 -9 3 -9 8 3
18 -2 33 -9 28 -4 -2 -13 7 -19 20 -10 22 -8 27 24 52 20 15 44 35 54 45 11 9
19 15 19 12 0 -3 10 4 23 15 35 34 157 106 217 128 91 34 94 35 110 38 8 2 29
6 45 9 17 3 54 7 82 9 29 1 56 5 59 9 4 4 13 2 20 -4 8 -7 14 -7 19 1 4 7 12
7 26 -1 12 -6 23 -8 26 -5 3 2 15 1 28 -4 14 -5 26 -5 34 3 6 6 11 7 11 1 0
-11 122 -10 185 1 22 4 49 8 60 10 11 1 43 12 70 25 28 12 56 23 63 23 6 0 12
4 12 9 0 4 7 8 15 8 8 0 15 4 15 9 0 5 20 20 45 32 24 12 42 26 39 31 -3 4 0
8 5 8 14 0 101 88 101 101 0 5 3 9 8 9 9 0 63 90 77 130 1 3 9 22 19 43 9 21
14 42 11 47 -4 6 -1 10 5 10 7 0 10 7 7 15 -4 8 -2 17 3 20 5 3 7 12 3 20 -3
8 -1 15 3 15 11 0 9 185 -2 237 -4 21 -9 43 -10 48 -1 6 -3 13 -4 18 -1 4 -3
10 -5 15 -12 45 -76 172 -86 172 -5 0 -9 6 -9 13 0 7 -9 19 -20 27 -11 8 -20
19 -20 26 0 6 -23 31 -51 55 -29 24 -57 49 -63 54 -6 6 -23 16 -38 24 -16 8
-28 18 -28 23 0 5 -4 6 -10 3 -5 -3 -10 -1 -10 5 0 6 -4 9 -9 5 -5 -3 -16 2
-25 11 -9 8 -20 12 -26 9 -5 -3 -10 -1 -10 6 0 7 -3 9 -7 6 -3 -4 -17 0 -31 9
-17 11 -22 12 -17 3 6 -11 5 -12 -6 -1 -7 6 -25 12 -40 12 -15 0 -30 4 -33 8
-2 4 -32 7 -65 6 -37 0 -58 3 -54 9 4 6 1 7 -7 2 -7 -4 -29 -9 -49 -11 -43 -4
-87 -11 -121 -20 -14 -3 -33 -7 -42 -7 -10 -1 -18 -4 -18 -8 0 -3 -25 -16 -55
-29 -30 -13 -55 -27 -55 -32 0 -5 -4 -7 -9 -4 -5 3 -25 -10 -45 -28 -20 -19
-36 -32 -36 -28 -1 4 -9 -3 -19 -15 -10 -12 -21 -19 -25 -16 -3 4 -6 1 -6 -5
0 -15 -42 -58 -53 -54 -5 1 -6 -2 -3 -7 4 -5 -1 -16 -9 -24 -8 -9 -15 -20 -15
-25 0 -5 -9 -17 -20 -27 -10 -9 -19 -20 -18 -24 2 -21 -4 -31 -14 -25 -7 4
-10 4 -6 0 3 -4 0 -22 -7 -41 -8 -18 -11 -35 -8 -39 4 -3 1 -6 -6 -6 -8 0 -11
-8 -8 -20 3 -10 1 -20 -5 -22 -5 -2 -11 -21 -13 -43 -3 -22 -8 -57 -14 -77 -5
-21 -6 -38 -3 -38 3 0 -3 -10 -14 -22 -10 -12 -13 -18 -6 -14 6 4 12 5 12 2 0
-12 -43 -122 -53 -133 -5 -7 -7 -13 -3 -13 4 0 -9 -25 -29 -55 -19 -31 -35
-58 -35 -62 0 -7 -6 -14 -70 -80 -22 -24 -40 -48 -40 -55 0 -6 -3 -9 -6 -5 -5
5 -38 -20 -80 -60 -7 -7 -17 -13 -22 -13 -6 0 -12 -4 -14 -8 -6 -14 -85 -73
-102 -76 -10 -1 -71 51 -150 128 -74 72 -148 142 -165 156 -31 25 -66 54 -133
111 -21 17 -35 35 -32 40 3 5 1 9 -3 9 -5 0 -9 8 -10 18 -3 42 -8 62 -14 62
-4 0 -5 9 -2 20 3 11 0 20 -6 20 -6 0 -11 8 -11 18 0 23 -22 72 -33 72 -5 0
-5 5 -2 10 3 6 1 10 -4 10 -6 0 -11 7 -11 15 0 8 -5 15 -12 15 -6 0 -9 3 -5 6
5 6 -6 23 -50 72 -13 14 -23 29 -23 34 0 5 -4 6 -10 3 -5 -3 -10 1 -10 9 0 9
-4 16 -8 16 -5 0 -23 13 -40 28 -17 16 -44 35 -59 43 -16 8 -31 18 -34 22 -3
4 -15 9 -27 10 -11 0 -19 4 -16 8 2 4 -13 13 -33 19 -21 6 -45 14 -53 17 -32
13 -70 21 -130 29 -25 3 -48 8 -52 11 -5 2 -8 -1 -8 -7 0 -6 -4 -9 -9 -5 -15
9 -71 13 -66 4 3 -4 -7 -6 -22 -5 -16 2 -32 1 -38 -2 -5 -3 -18 -7 -30 -9 -28
-4 -47 -9 -67 -17 -9 -4 -23 -9 -31 -10 -8 -1 -22 -8 -31 -15 -9 -7 -16 -10
-16 -6 0 4 -6 2 -14 -4 -28 -23 -70 -29 -83 -12 -10 12 -12 13 -13 2 0 -10 -3
-11 -14 -2 -8 6 -18 11 -22 10 -5 -1 -11 0 -14 1 -8 3 -44 11 -65 15 -11 2
-20 4 -20 5 0 3 -41 10 -67 12 -15 0 -25 4 -23 9 3 4 -11 6 -30 5 -20 -2 -38
0 -40 4 -3 4 -22 8 -42 9 -21 0 -56 3 -78 6 -22 3 -59 7 -81 9 -23 2 -46 6
-53 10 -11 7 -11 33 2 54 5 6 4 12 -1 12 -11 0 -9 66 1 77 4 3 1 13 -6 21 -10
12 -9 16 1 20 9 3 10 7 2 17 -8 9 -8 15 0 20 7 4 7 12 0 25 -6 10 -6 21 -2 24
5 3 8 20 7 38 0 18 4 36 10 40 6 5 4 8 -5 8 -12 0 -12 2 -2 9 7 4 15 19 17 32
9 55 29 119 37 119 5 0 6 5 3 10 -3 6 -1 10 4 10 6 0 10 3 9 8 -1 4 3 17 10
30 7 12 11 22 8 22 -3 0 6 12 19 26 14 15 25 33 25 40 0 7 12 22 27 33 14 12
23 24 19 28 -3 4 6 15 21 25 16 10 25 18 21 18 -3 0 15 23 42 50 27 28 45 50
42 50 -4 0 -2 4 3 8 13 9 34 42 41 65 4 9 10 17 15 17 5 0 9 9 9 20 0 11 5 20
11 20 5 0 7 5 4 10 -3 6 -1 10 5 10 6 0 9 3 7 8 -3 4 0 18 6 32 13 33 17 49
20 87 1 18 5 33 8 33 4 0 6 10 5 23 -1 12 3 25 9 29 6 5 5 8 -3 8 -7 0 -10 4
-7 10 9 14 12 80 5 85 -4 3 -6 16 -5 30 2 14 0 25 -4 25 -4 0 -7 14 -6 30 1
17 -2 30 -6 30 -5 0 -6 6 -3 14 3 8 0 17 -5 21 -6 3 -9 11 -6 16 4 5 2 9 -4 9
-6 0 -8 7 -5 15 4 8 1 15 -5 15 -6 0 -10 3 -9 8 1 4 -3 17 -10 30 -7 12 -9 22
-5 22 4 0 3 4 -4 8 -6 4 -13 14 -15 21 -2 8 -10 22 -18 31 -8 9 -31 37 -50 61
-19 24 -46 52 -59 64 -13 11 -34 30 -46 42 -13 12 -26 19 -29 16 -3 -4 -6 -1
-6 5 0 7 -7 12 -15 12 -8 0 -15 5 -15 11 0 5 -4 7 -10 4 -5 -3 -10 -2 -10 2 0
5 -16 15 -35 22 -19 7 -35 17 -35 23 0 6 -3 8 -7 5 -3 -4 -13 -1 -21 6 -13 10
-14 9 -7 -3 8 -13 6 -13 -8 -2 -9 8 -20 11 -26 8 -5 -3 -11 -2 -13 4 -1 5 -15
11 -30 12 -16 1 -28 7 -28 13 0 5 -5 3 -10 -5 -5 -8 -10 -10 -10 -4 0 13 -181
20 -194 7z"/>
</g>
</svg>
